HIERARCHY
ROOT mixamorig:Hips
{
	OFFSET 0.000000 201.639420 0.000000
	CHANNELS 6 Xposition Yposition Zposition Xrotation Yrotation Zrotation
	JOINT mixamorig:Spine
	{
		OFFSET 0.006200 19.524994 -2.481800
		CHANNELS 3 Xrotation Yrotation Zrotation
		JOINT mixamorig:Spine1
		{
			OFFSET -0.000900 22.835007 -2.825400
			CHANNELS 3 Xrotation Yrotation Zrotation
			JOINT mixamorig:Spine2
			{
				OFFSET -0.020600 26.552490 -3.193300
				CHANNELS 3 Xrotation Yrotation Zrotation
				JOINT mixamorig:Neck
				{
					OFFSET -0.060000 30.701813 1.352200
					CHANNELS 3 Xrotation Yrotation Zrotation
					JOINT mixamorig:Head
					{
						OFFSET -0.087200 22.547607 3.670900
						CHANNELS 3 Xrotation Yrotation Zrotation
						JOINT mixamorig:HeadTop_End
						{
							OFFSET -0.830600 40.355194 7.893500
							CHANNELS 3 Xrotation Yrotation Zrotation
							End Site
							{
								OFFSET 0.000000 30.592346 0.000000
							}
						}
						JOINT mixamorig:RightEye
						{
							OFFSET -6.302100 18.118591 16.197100
							CHANNELS 3 Xrotation Yrotation Zrotation
							End Site
							{
								OFFSET 0.000000 30.592346 0.000000
							}
						}
						JOINT mixamorig:LeftEye
						{
							OFFSET 6.741500 18.382690 16.401899
							CHANNELS 3 Xrotation Yrotation Zrotation
							End Site
							{
								OFFSET 0.000000 30.592346 0.000000
							}
						}
					}
				}
				JOINT mixamorig:LeftShoulder
				{
					OFFSET 11.924900 18.230499 1.425400
					CHANNELS 3 Xrotation Yrotation Zrotation
					JOINT mixamorig:LeftArm
					{
						OFFSET 25.435989 -0.697632 -5.229300
						CHANNELS 3 Xrotation Yrotation Zrotation
						JOINT mixamorig:LeftForeArm
						{
							OFFSET 54.684776 0.000000 0.000000
							CHANNELS 3 Xrotation Yrotation Zrotation
							JOINT mixamorig:LeftHand
							{
								OFFSET 55.098175 0.000000 0.000000
								CHANNELS 3 Xrotation Yrotation Zrotation
								JOINT mixamorig:LeftHandMiddle1
								{
									OFFSET 23.369751 0.000000 0.000000
									CHANNELS 3 Xrotation Yrotation Zrotation
									JOINT mixamorig:LeftHandMiddle2
									{
										OFFSET 6.378677 0.000000 0.000000
										CHANNELS 3 Xrotation Yrotation Zrotation
										JOINT mixamorig:LeftHandMiddle3
										{
											OFFSET 6.148331 0.000000 0.000000
											CHANNELS 3 Xrotation Yrotation Zrotation
											JOINT mixamorig:LeftHandMiddle4
											{
												OFFSET 6.582504 0.000000 0.000000
												CHANNELS 3 Xrotation Yrotation Zrotation
												End Site
												{
													OFFSET -1.168900 6.395691 1.028606
												}
											}
										}
									}
								}
								JOINT mixamorig:LeftHandThumb1
								{
									OFFSET 7.235672 -3.848206 5.434273
									CHANNELS 3 Xrotation Yrotation Zrotation
									JOINT mixamorig:LeftHandThumb2
									{
										OFFSET 6.568451 -3.792297 3.792300
										CHANNELS 3 Xrotation Yrotation Zrotation
										JOINT mixamorig:LeftHandThumb3
										{
											OFFSET 6.063080 -3.500519 3.500518
											CHANNELS 3 Xrotation Yrotation Zrotation
											JOINT mixamorig:LeftHandThumb4
											{
												OFFSET 4.793182 -2.767334 2.767349
												CHANNELS 3 Xrotation Yrotation Zrotation
												End Site
												{
													OFFSET 0.101639 6.054260 1.275483
												}
											}
										}
									}
								}
								JOINT mixamorig:LeftHandIndex1
								{
									OFFSET 23.101074 -0.309540 4.992809
									CHANNELS 3 Xrotation Yrotation Zrotation
									JOINT mixamorig:LeftHandIndex2
									{
										OFFSET 6.226883 0.000000 0.000000
										CHANNELS 3 Xrotation Yrotation Zrotation
										JOINT mixamorig:LeftHandIndex3
										{
											OFFSET 6.094330 0.000000 0.000000
											CHANNELS 3 Xrotation Yrotation Zrotation
											JOINT mixamorig:LeftHandIndex4
											{
												OFFSET 5.482605 0.000000 0.000000
												CHANNELS 3 Xrotation Yrotation Zrotation
												End Site
												{
													OFFSET -1.427902 5.233032 0.797164
												}
											}
										}
									}
								}
								JOINT mixamorig:LeftHandRing1
								{
									OFFSET 22.299240 0.021149 -3.964172
									CHANNELS 3 Xrotation Yrotation Zrotation
									JOINT mixamorig:LeftHandRing2
									{
										OFFSET 6.321869 0.000000 0.000000
										CHANNELS 3 Xrotation Yrotation Zrotation
										JOINT mixamorig:LeftHandRing3
										{
											OFFSET 5.899796 0.000000 0.000000
											CHANNELS 3 Xrotation Yrotation Zrotation
											JOINT mixamorig:LeftHandRing4
											{
												OFFSET 6.517899 0.000000 0.000000
												CHANNELS 3 Xrotation Yrotation Zrotation
												End Site
												{
													OFFSET -1.637299 6.232208 0.980890
												}
											}
										}
									}
								}
								JOINT mixamorig:LeftHandPinky1
								{
									OFFSET 20.463791 -0.302338 -8.562233
									CHANNELS 3 Xrotation Yrotation Zrotation
									JOINT mixamorig:LeftHandPinky2
									{
										OFFSET 6.908646 0.000000 0.000000
										CHANNELS 3 Xrotation Yrotation Zrotation
										JOINT mixamorig:LeftHandPinky3
										{
											OFFSET 4.622849 0.000000 0.000000
											CHANNELS 3 Xrotation Yrotation Zrotation
											JOINT mixamorig:LeftHandPinky4
											{
												OFFSET 5.216080 0.000000 0.000000
												CHANNELS 3 Xrotation Yrotation Zrotation
												End Site
												{
													OFFSET -0.606308 5.116241 0.814926
												}
											}
										}
									}
								}
							}
						}
					}
				}
				JOINT mixamorig:RightShoulder
				{
					OFFSET -12.001300 18.284088 1.348900
					CHANNELS 3 Xrotation Yrotation Zrotation
					JOINT mixamorig:RightArm
					{
						OFFSET -25.308500 -0.751312 -5.164599
						CHANNELS 3 Xrotation Yrotation Zrotation
						JOINT mixamorig:RightForeArm
						{
							OFFSET -54.684429 0.000000 0.000000
							CHANNELS 3 Xrotation Yrotation Zrotation
							JOINT mixamorig:RightHand
							{
								OFFSET -55.150291 0.000000 0.000000
								CHANNELS 3 Xrotation Yrotation Zrotation
								JOINT mixamorig:RightHandMiddle1
								{
									OFFSET -23.317566 0.000000 0.000000
									CHANNELS 3 Xrotation Yrotation Zrotation
									JOINT mixamorig:RightHandMiddle2
									{
										OFFSET -6.378403 0.000000 0.000000
										CHANNELS 3 Xrotation Yrotation Zrotation
										JOINT mixamorig:RightHandMiddle3
										{
											OFFSET -6.148193 0.000000 0.000000
											CHANNELS 3 Xrotation Yrotation Zrotation
											JOINT mixamorig:RightHandMiddle4
											{
												OFFSET -6.583389 0.000000 0.000000
												CHANNELS 3 Xrotation Yrotation Zrotation
												End Site
												{
													OFFSET 1.171692 6.395905 1.029786
												}
											}
										}
									}
								}
								JOINT mixamorig:RightHandThumb1
								{
									OFFSET -7.190521 -3.860474 5.435846
									CHANNELS 3 Xrotation Yrotation Zrotation
									JOINT mixamorig:RightHandThumb2
									{
										OFFSET -6.567429 -3.791718 3.791708
										CHANNELS 3 Xrotation Yrotation Zrotation
										JOINT mixamorig:RightHandThumb3
										{
											OFFSET -6.062469 -3.500153 3.500166
											CHANNELS 3 Xrotation Yrotation Zrotation
											JOINT mixamorig:RightHandThumb4
											{
												OFFSET -4.792618 -2.767029 2.767022
												CHANNELS 3 Xrotation Yrotation Zrotation
												End Site
												{
													OFFSET -0.100327 6.053253 1.276754
												}
											}
										}
									}
								}
								JOINT mixamorig:RightHandIndex1
								{
									OFFSET -23.048981 -0.310791 4.992554
									CHANNELS 3 Xrotation Yrotation Zrotation
									JOINT mixamorig:RightHandIndex2
									{
										OFFSET -6.227539 0.000000 0.000000
										CHANNELS 3 Xrotation Yrotation Zrotation
										JOINT mixamorig:RightHandIndex3
										{
											OFFSET -6.095047 0.000000 0.000000
											CHANNELS 3 Xrotation Yrotation Zrotation
											JOINT mixamorig:RightHandIndex4
											{
												OFFSET -5.484772 0.000000 0.000000
												CHANNELS 3 Xrotation Yrotation Zrotation
												End Site
												{
													OFFSET 1.420593 5.237305 0.797056
												}
											}
										}
									}
								}
								JOINT mixamorig:RightHandRing1
								{
									OFFSET -22.246323 0.020569 -3.963762
									CHANNELS 3 Xrotation Yrotation Zrotation
									JOINT mixamorig:RightHandRing2
									{
										OFFSET -6.322128 0.000000 0.000000
										CHANNELS 3 Xrotation Yrotation Zrotation
										JOINT mixamorig:RightHandRing3
										{
											OFFSET -5.900024 0.000000 0.000000
											CHANNELS 3 Xrotation Yrotation Zrotation
											JOINT mixamorig:RightHandRing4
											{
												OFFSET -6.518356 0.000000 0.000000
												CHANNELS 3 Xrotation Yrotation Zrotation
												End Site
												{
													OFFSET 1.636398 6.232697 0.982186
												}
											}
										}
									}
								}
								JOINT mixamorig:RightHandPinky1
								{
									OFFSET -20.411011 -0.303314 -8.561701
									CHANNELS 3 Xrotation Yrotation Zrotation
									JOINT mixamorig:RightHandPinky2
									{
										OFFSET -6.907349 0.000000 0.000000
										CHANNELS 3 Xrotation Yrotation Zrotation
										JOINT mixamorig:RightHandPinky3
										{
											OFFSET -4.623840 0.000000 0.000000
											CHANNELS 3 Xrotation Yrotation Zrotation
											JOINT mixamorig:RightHandPinky4
											{
												OFFSET -5.218353 0.000000 0.000000
												CHANNELS 3 Xrotation Yrotation Zrotation
												End Site
												{
													OFFSET 0.602097 5.118835 0.816273
												}
											}
										}
									}
								}
							}
						}
					}
				}
			}
		}
	}
	JOINT mixamorig:LeftUpLeg
	{
		OFFSET 18.168400 -13.561905 -0.039000
		CHANNELS 3 Xrotation Yrotation Zrotation
		JOINT mixamorig:LeftLeg
		{
			OFFSET 0.577358 -80.825211 -3.695000
			CHANNELS 3 Xrotation Yrotation Zrotation
			JOINT mixamorig:LeftFoot
			{
				OFFSET -0.577356 -83.370262 -6.520700
				CHANNELS 3 Xrotation Yrotation Zrotation
				JOINT mixamorig:LeftToeBase
				{
					OFFSET 0.750401 -20.798306 25.135401
					CHANNELS 3 Xrotation Yrotation Zrotation
					JOINT mixamorig:LeftToe_End
					{
						OFFSET -0.000500 0.001200 19.917799
						CHANNELS 3 Xrotation Yrotation Zrotation
						End Site
						{
							OFFSET 0.000000 19.917805 0.000000
						}
					}
				}
			}
		}
	}
	JOINT mixamorig:RightUpLeg
	{
		OFFSET -18.162500 -13.585098 -0.041000
		CHANNELS 3 Xrotation Yrotation Zrotation
		JOINT mixamorig:RightLeg
		{
			OFFSET -0.595024 -80.945297 -3.631900
			CHANNELS 3 Xrotation Yrotation Zrotation
			JOINT mixamorig:RightFoot
			{
				OFFSET 0.595024 -83.218193 -6.561200
				CHANNELS 3 Xrotation Yrotation Zrotation
				JOINT mixamorig:RightToeBase
				{
					OFFSET -0.753601 -20.807106 25.115000
					CHANNELS 3 Xrotation Yrotation Zrotation
					JOINT mixamorig:RightToe_End
					{
						OFFSET 0.000299 0.001700 19.918200
						CHANNELS 3 Xrotation Yrotation Zrotation
						End Site
						{
							OFFSET 0.000000 19.918203 0.000000
						}
					}
				}
			}
		}
	}
}
MOTION
Frames: 5
Frame Time: 0.033333
-0.012695 173.029312 -0.641726 -5.398707 -46.252009 -0.056131 9.475558 7.180773 -1.803782 2.187715 0.989897 -0.915631 2.202827 0.982779 -0.894154 0.084653 13.220562 4.538679 8.920923 20.138147 -4.130238 0.000000 0.000000 0.000000 0.000000 0.000000 0.000000 0.000000 0.000000 0.000000 1.117176 3.546352 -8.633311 -53.487010 4.935503 -51.502973 0.000014 -106.358087 0.000028 1.988604 -7.706153 -15.869279 -0.461472 3.841596 -39.722683 6.450740 5.820348 -95.892864 2.182894 4.561567 -51.127750 -0.000001 -0.000002 0.000004 -6.141201 -11.690806 -6.761680 9.914084 42.595522 3.409856 -0.422805 8.108098 27.509113 0.000003 0.000002 -0.000001 0.255316 3.378219 -45.814341 5.654078 5.847747 -88.067448 2.162146 4.544817 -50.866376 -0.000000 -0.000001 -0.000001 0.469734 4.966845 -39.799444 8.181047 5.368629 -113.502998 3.200486 5.218121 -63.022996 -0.000001 -0.000001 0.000004 -3.762423 9.063702 -45.253832 5.342524 5.828996 -85.005317 8.716851 5.103341 -119.369208 -0.000001 -0.000001 -0.000000 3.036129 13.027195 -5.371409 -48.713712 27.172825 83.457077 0.000134 105.988321 -0.000139 -8.345355 17.548096 8.775687 -0.761629 -2.932902 39.031041 5.133894 -4.632772 95.881670 1.739737 -3.631689 51.181346 0.000000 -0.000000 -0.000000 -7.341106 13.749658 7.412308 9.855793 -44.489079 -3.903233 -0.115777 -14.513064 -28.973881 -0.000002 -0.000000 0.000001 -0.124384 -2.384784 45.108868 4.500570 -4.654520 88.071150 1.723218 -3.618367 50.920088 0.000001 -0.000002 -0.000001 0.154757 -4.068819 39.122658 6.509730 -4.273604 113.462877 2.549576 -4.153903 63.067324 0.000000 0.000002 0.000001 -4.198884 -8.025512 44.637772 4.252923 -4.639629 85.014846 6.935958 -4.062612 119.322285 0.000003 0.000000 -0.000000 -34.130896 7.615459 16.986786 59.306915 -6.173483 4.298895 -22.400377 -8.372828 -14.231634 -1.594032 0.000005 -0.000002 0.000000 -0.000000 -0.000000 -27.091527 -9.870291 -27.856911 58.168828 -9.793272 -7.732376 -23.346241 -5.495975 20.852924 -0.013007 -0.000023 -0.000003 -0.000000 0.000001 -0.000000 
0.395456 171.647400 1.656267 -4.842906 -46.900949 0.345225 9.983099 7.444016 -2.362007 1.919022 1.031456 -0.894290 1.933608 1.024681 -0.876801 0.147687 13.274474 4.801531 8.438727 20.258169 -3.306310 0.000000 0.000000 0.000000 0.000000 0.000000 0.000000 0.000000 0.000000 0.000000 1.110798 3.629645 -8.655085 -52.847356 5.110379 -51.144935 0.000046 -106.565008 0.000046 2.619434 -7.356066 -16.400556 -0.461469 3.841595 -39.722686 6.450743 5.820344 -95.892857 2.182894 4.561567 -51.127750 -0.000000 -0.000001 -0.000001 -6.141202 -11.690802 -6.761684 9.914088 42.595519 3.409856 -0.422809 8.108105 27.509113 0.000002 0.000001 0.000000 0.255317 3.378218 -45.814337 5.654078 5.847746 -88.067455 2.162145 4.544816 -50.866379 -0.000001 -0.000000 -0.000001 0.469734 4.966845 -39.799444 8.181048 5.368626 -113.503004 3.200484 5.218118 -63.022989 -0.000001 -0.000001 0.000001 -3.762420 9.063700 -45.253838 5.342527 5.828994 -85.005311 8.716853 5.103342 -119.369222 0.000001 -0.000000 0.000000 3.168200 13.272906 -5.297224 -48.735606 27.442177 83.446361 -0.000153 105.846752 0.000159 -7.986921 17.691838 8.782344 -0.761630 -2.932902 39.031044 5.133895 -4.632770 95.881663 1.739738 -3.631692 51.181350 0.000000 0.000001 0.000001 -7.341104 13.749657 7.412313 9.855796 -44.489079 -3.903231 -0.115782 -14.513073 -28.973874 -0.000004 0.000001 -0.000000 -0.124385 -2.384784 45.108864 4.500569 -4.654518 88.071157 1.723216 -3.618367 50.920092 -0.000001 0.000002 -0.000002 0.154753 -4.068821 39.122661 6.509728 -4.273604 113.462870 2.549577 -4.153907 63.067324 -0.000001 -0.000001 0.000004 -4.198882 -8.025512 44.637766 4.252922 -4.639627 85.014846 6.935956 -4.062608 119.322285 -0.000001 0.000000 -0.000000 -35.220530 7.431962 16.683191 62.199329 -5.884993 4.075696 -23.740739 -7.484293 -13.871969 -1.948770 -0.000013 -0.000004 0.000000 0.000002 0.000000 -28.013748 -9.455957 -28.971118 59.206381 -8.064031 -7.720953 -23.724935 -6.242313 21.011902 -0.009319 -0.000018 -0.000003 -0.000000 0.000000 -0.000000 
0.930650 169.648651 4.366497 -4.759791 -47.847517 0.548628 10.899100 7.687614 -2.583284 1.539429 1.075395 -0.994707 1.555852 1.063878 -0.984261 0.224811 13.408731 5.015507 7.802364 20.551081 -2.418993 0.000000 0.000000 0.000000 0.000000 0.000000 0.000000 0.000000 0.000000 0.000000 1.121587 3.787872 -8.773754 -51.626985 5.771742 -50.514191 -0.000030 -107.515708 -0.000017 2.253901 -7.303337 -16.210544 -0.461470 3.841592 -39.722690 6.450744 5.820346 -95.892857 2.182895 4.561564 -51.127750 0.000001 -0.000002 0.000002 -6.141202 -11.690805 -6.761679 9.914080 42.595525 3.409854 -0.422805 8.108106 27.509115 0.000000 0.000001 0.000002 0.255315 3.378219 -45.814341 5.654078 5.847748 -88.067455 2.162150 4.544817 -50.866382 0.000001 0.000001 0.000001 0.469735 4.966843 -39.799444 8.181047 5.368627 -113.502998 3.200485 5.218117 -63.022989 0.000000 -0.000001 0.000001 -3.762421 9.063699 -45.253835 5.342528 5.828997 -85.005311 8.716855 5.103342 -119.369208 -0.000001 -0.000001 -0.000000 3.247086 13.563563 -5.303622 -48.566811 27.946197 83.362964 -0.000033 105.742947 0.000027 -7.591059 18.230878 8.616250 -0.761630 -2.932901 39.031041 5.133895 -4.632773 95.881663 1.739736 -3.631692 51.181353 0.000000 0.000000 -0.000000 -7.341105 13.749662 7.412310 9.855796 -44.489072 -3.903217 -0.115781 -14.513069 -28.973884 -0.000002 0.000000 -0.000001 -0.124381 -2.384784 45.108864 4.500571 -4.654519 88.071157 1.723215 -3.618365 50.920088 0.000001 -0.000000 -0.000001 0.154757 -4.068818 39.122658 6.509732 -4.273601 113.462877 2.549576 -4.153904 63.067324 -0.000003 -0.000000 -0.000002 -4.198878 -8.025510 44.637766 4.252923 -4.639630 85.014846 6.935956 -4.062612 119.322285 0.000002 0.000000 -0.000000 -36.943848 6.949788 16.758981 66.759710 -5.949281 3.788869 -24.152194 -6.963619 -15.397137 -3.681897 -0.004555 0.618237 0.000000 0.000002 0.000000 -29.085449 -8.949003 -30.484439 60.759532 -5.710024 -8.104650 -24.369466 -7.116531 21.259841 0.037796 -0.000018 0.059831 0.000000 0.000000 0.000000 
1.741353 166.912170 7.726784 -5.278875 -48.972180 0.423867 12.524854 8.002302 -2.370308 1.008457 1.137201 -1.195140 1.029084 1.113616 -1.196600 0.301472 13.583233 5.195164 7.313363 20.924515 -1.744407 0.000001 0.000000 0.000001 0.000001 0.000000 0.000001 0.000001 0.000000 0.000001 1.175978 3.929103 -9.004325 -49.887036 7.001838 -49.770257 -0.000003 -108.804073 -0.000022 1.352602 -7.736115 -15.450591 -0.461470 3.841592 -39.722693 6.450742 5.820347 -95.892857 2.182896 4.561567 -51.127750 0.000001 -0.000000 0.000002 -6.141202 -11.690805 -6.761679 9.914084 42.595522 3.409856 -0.422804 8.108107 27.509111 0.000000 0.000001 -0.000001 0.255316 3.378215 -45.814337 5.654082 5.847748 -88.067455 2.162148 4.544814 -50.866379 0.000000 0.000000 -0.000001 0.469735 4.966841 -39.799444 8.181045 5.368626 -113.502998 3.200486 5.218120 -63.022989 -0.000003 0.000001 -0.000001 -3.762420 9.063695 -45.253832 5.342528 5.828994 -85.005311 8.716854 5.103336 -119.369208 -0.000002 -0.000001 0.000001 3.143300 13.743614 -5.466361 -48.037878 28.828265 83.320043 -0.000097 105.520972 0.000090 -6.875388 19.278544 8.219869 -0.761629 -2.932901 39.031037 5.133897 -4.632770 95.881663 1.739738 -3.631692 51.181350 0.000002 0.000000 0.000001 -7.341105 13.749660 7.412304 9.855796 -44.489079 -3.903232 -0.115777 -14.513068 -28.973881 -0.000001 -0.000002 0.000002 -0.124384 -2.384784 45.108861 4.500570 -4.654519 88.071150 1.723215 -3.618366 50.920085 0.000001 0.000002 -0.000002 0.154755 -4.068820 39.122654 6.509731 -4.273602 113.462870 2.549577 -4.153906 63.067324 0.000001 0.000001 -0.000001 -4.198884 -8.025512 44.637766 4.252921 -4.639627 85.014846 6.935957 -4.062617 119.322285 -0.000002 0.000000 0.000000 -39.678130 5.882764 17.229379 73.387172 -6.556325 3.547151 -22.607337 -7.506207 -19.361764 -6.720675 -0.125057 3.188598 -0.000000 -0.000001 0.000000 -30.146143 -8.327031 -32.479172 62.749549 -2.744021 -8.938650 -25.206381 -8.139899 21.723915 0.082789 -0.000207 0.128519 -0.000000 0.000001 -0.000000 
2.927432 163.544891 11.844791 -6.244433 -50.298100 0.009534 14.454118 8.399813 -1.816819 0.442187 1.214344 -1.421360 0.467878 1.172383 -1.437209 0.210530 13.826471 5.403095 7.344344 21.630118 -1.624115 0.000001 0.000000 0.000000 0.000001 0.000000 0.000000 0.000001 0.000000 0.000000 1.258823 4.089397 -9.333222 -47.782012 8.596511 -48.899445 0.000042 -110.341269 0.000045 0.489917 -8.461475 -14.361376 -0.461471 3.841593 -39.722683 6.450744 5.820347 -95.892857 2.182895 4.561566 -51.127746 -0.000002 -0.000002 -0.000001 -6.141205 -11.690805 -6.761680 9.914086 42.595522 3.409852 -0.422802 8.108110 27.509115 0.000000 -0.000000 -0.000000 0.255316 3.378220 -45.814337 5.654078 5.847746 -88.067455 2.162145 4.544814 -50.866379 -0.000001 0.000001 0.000002 0.469735 4.966844 -39.799441 8.181047 5.368626 -113.503004 3.200486 5.218118 -63.022989 -0.000003 0.000001 -0.000003 -3.762423 9.063700 -45.253828 5.342526 5.828993 -85.005311 8.716853 5.103338 -119.369208 0.000001 -0.000000 0.000001 2.996313 13.783031 -5.627375 -47.724345 30.181387 83.541143 0.000107 104.928761 -0.000090 -6.046125 20.446053 7.927030 -0.761629 -2.932902 39.031037 5.133893 -4.632772 95.881663 1.739735 -3.631691 51.181343 0.000000 -0.000003 -0.000002 -7.341104 13.749657 7.412312 9.855798 -44.489079 -3.903234 -0.115778 -14.513073 -28.973874 0.000002 -0.000004 0.000002 -0.124384 -2.384785 45.108864 4.500570 -4.654521 88.071157 1.723216 -3.618365 50.920088 -0.000000 -0.000001 -0.000003 0.154755 -4.068821 39.122658 6.509729 -4.273605 113.462870 2.549577 -4.153904 63.067324 -0.000002 0.000000 0.000000 -4.198883 -8.025511 44.637772 4.252922 -4.639629 85.014839 6.935960 -4.062612 119.322285 0.000001 -0.000000 0.000000 -43.235043 4.421950 18.181945 81.403643 -7.226568 3.218744 -20.119446 -10.306361 -23.630187 -7.960953 -0.423850 5.780295 0.000000 0.000000 -0.000000 -31.232283 -7.488911 -35.022440 64.944055 0.730292 -9.977815 -25.973941 -9.198007 22.366510 0.101189 -0.000221 0.156534 0.000000 0.000000 -0.000001 
